<svg xmlns="http://www.w3.org/2000/svg" viewBox="0 0 234.45 62.51"><defs><style>.cls-1,.cls-2{fill:#231815;}.cls-1,.cls-4{stroke:#040000;}.cls-1,.cls-2,.cls-3,.cls-4{stroke-miterlimit:10;}.cls-2,.cls-3{stroke:#231815;}.cls-3,.cls-4{fill:#fff;}</style></defs><g id="레이어_2" data-name="레이어 2"><g id="레이어_2-2" data-name="레이어 2"><path class="cls-1" d="M54.3,62A7.42,7.42,0,0,1,49,49.43l16.47-17a4.2,4.2,0,0,0,1.18-3v-.14a3.93,3.93,0,0,0-7.86-.26c0,.5-.08,1.24-.13,1.55a6.54,6.54,0,0,1-12.95-.17c0-.18,0-.3-.05-.42s0-1,0-1c.06-10.25,7.91-18.55,17.5-18.55S80.6,18.83,80.6,29.1a20.06,20.06,0,0,1-.67,5.13l-.16.53A18.88,18.88,0,0,1,75.69,42l-5.55,5.75H75.4A7.19,7.19,0,0,1,82.58,55v7Z"/><path class="cls-1" d="M32.19,62V48.8H11.47a11,11,0,0,1-11-11,10.79,10.79,0,0,1,.84-4.2,11,11,0,0,1,2.37-3.56L30.8,3a8.72,8.72,0,0,1,2.14-1.55A8.54,8.54,0,0,1,36.77.5,8.83,8.83,0,0,1,38.5.67,8.46,8.46,0,0,1,45.23,9a8.33,8.33,0,0,1-2.48,5.92l-6.83,6.83h3.45a7.19,7.19,0,0,1,7.18,7.18v2.92h1.88A7.2,7.2,0,0,1,55.61,39V48.8H46.55V62Zm0-30.17V25.47l-6.38,6.37Z"/><path class="cls-2" d="M104.58,62h0a7.47,7.47,0,0,1-7-7.75V49.94L92.17,59A6,6,0,0,1,87,62h-.79A7.5,7.5,0,0,1,79,54.25V28.94a5.32,5.32,0,0,1,5-5.45h.11a7.54,7.54,0,0,1,7.1,7.75v4.32l5.45-9.06a6,6,0,0,1,5.18-3h1.83c5.12,0,5.12,5.23,5.12,7.75v4.32l5.41-9a6.12,6.12,0,0,1,10.73.17,7.18,7.18,0,0,1-.1,7.21L109.76,59a6.1,6.1,0,0,1-4.92,3h-.26Z"/><path class="cls-2" d="M167.46,62a5.49,5.49,0,0,1-4.36-2l-4.68-6L157,52.25l-1.24,5.87A5.27,5.27,0,0,1,150.65,62h-1.88a5.5,5.5,0,0,1-4.32-1.91,4.69,4.69,0,0,1-.92-4l5.83-27.62a6.87,6.87,0,0,1,6.69-5h12a11.88,11.88,0,0,1,9,4.47,11.36,11.36,0,0,1,2,9.44,17,17,0,0,1-10.69,12l.79,1a1.57,1.57,0,0,0,1.21.44h.72a4.29,4.29,0,0,1,3.39,1.52,3.8,3.8,0,0,1,.75,3.19l-.54,2.58A5.27,5.27,0,0,1,169.64,62Zm-3-23a1.79,1.79,0,0,0,1.65-1l.3-1.42c0-.07,0-.24,0-.32a.63.63,0,0,0-.47-.14H160.4l-.61,2.9Z"/><path class="cls-2" d="M176.88,62a5.62,5.62,0,0,1-4.44-1.95,4.58,4.58,0,0,1-.92-3.92l5.82-27.62c.6-2.82,3.6-5,6.82-5h2.76A4.4,4.4,0,0,1,190.39,25a3.75,3.75,0,0,1,.75,3.17L186.55,50h12.68a4.41,4.41,0,0,1,3.48,1.55,3.75,3.75,0,0,1,.75,3.17l-.73,3.45a5.25,5.25,0,0,1-5.2,3.89Z"/><path class="cls-2" d="M204.42,62A5.63,5.63,0,0,1,200,60.06a4.61,4.61,0,0,1-.92-3.92l5.83-27.62c.6-2.82,3.59-5,6.82-5h9.64a11.69,11.69,0,0,1,9.25,4.38c3.06,3.77,4.09,9.34,2.83,15.29C231.2,53.73,222.69,62,214.06,62Zm11.46-12.63c1.82,0,3.84-1.34,5.27-3.5a10.27,10.27,0,0,0,1.48-3.55,7.74,7.74,0,0,0,0-3.35c-.21-.86-.93-2.86-3.14-2.86h-3.88l-2.8,13.26Z"/><path class="cls-3" d="M221.35,25.49h-9.64c-2.29,0-4.46,1.54-4.86,3.45L201,56.56c-.4,1.9,1.12,3.45,3.4,3.45h9.64c7.62,0,15.4-7.74,17.42-17.26S229,25.49,221.35,25.49ZM222.81,47c-1.73,2.63-4.34,4.4-6.93,4.4h-5.51L214,34.12h5.5c2.59,0,4.45,1.77,5.08,4.39a9.77,9.77,0,0,1,0,4.24A12.35,12.35,0,0,1,222.81,47Z"/><path class="cls-2" d="M128.83,62a12.86,12.86,0,0,1-10.51-4.82c-2.49-3.24-3.2-7.53-2-12.08l1.52-5.75c2.32-8.75,11.35-15.87,20.13-15.87a12.85,12.85,0,0,1,10.51,4.82c2.49,3.23,3.2,7.52,2,12.07L149,46.14C146.64,54.89,137.61,62,128.83,62Zm7-26.47a6.83,6.83,0,0,0-6.08,4.84l-1.52,5.76a3.23,3.23,0,0,0,.37,2.82A2.88,2.88,0,0,0,131,50,6.82,6.82,0,0,0,137,45.11l1.52-5.75a3.19,3.19,0,0,0-.37-2.82A2.87,2.87,0,0,0,135.85,35.54Z"/><path class="cls-3" d="M119.78,39.87l-1.52,5.75c-2.1,8,2.63,14.39,10.57,14.39h0c7.95,0,16.09-6.44,18.2-14.39l1.52-5.75c2.11-7.94-2.63-14.38-10.57-14.38h0C130,25.49,121.89,31.93,119.78,39.87ZM131,52h0c-3.5,0-5.58-2.83-4.65-6.33l1.52-5.75a8.82,8.82,0,0,1,8-6.33h0c3.49,0,5.57,2.83,4.65,6.33L139,45.62A8.81,8.81,0,0,1,131,52Z"/><path class="cls-3" d="M123.14,32.93,108.05,58a4.1,4.1,0,0,1-3.47,2h.26a5.5,5.5,0,0,1-5.21-5.76V42.75L90.46,58A4.07,4.07,0,0,1,87,60h-.79A5.5,5.5,0,0,1,81,54.25V28.94a3.3,3.3,0,0,1,3.12-3.45H84a5.5,5.5,0,0,1,5.21,5.75V42.75L98.4,27.54a4,4,0,0,1,3.46-2.05h1.83c2.87,0,3.12,2.57,3.12,5.75V42.75l9.12-15.13a4.24,4.24,0,0,1,3.6-2.13h0C123,25.49,125.06,29.75,123.14,32.93Z"/><path class="cls-3" d="M171.15,52.83h-.72a3.47,3.47,0,0,1-2.79-1.21l-.8-1L165,48.27c5.8-1.07,11-5.71,12.13-11.27,1.3-6.15-2.79-11.18-9.18-11.49H156.05a4.86,4.86,0,0,0-4.73,3.45l-5.83,27.62c-.4,1.91,1.06,3.45,3.28,3.45h1.88a3.24,3.24,0,0,0,3.15-2.3l2-9.44H157a4.46,4.46,0,0,0,.85,1.85L160,52.83l4.67,6a3.49,3.49,0,0,0,2.79,1.2h2.18a3.25,3.25,0,0,0,3.15-2.3l.55-2.58A2,2,0,0,0,171.15,52.83ZM157.32,41l1.46-6.92.85,0h6.31A2.32,2.32,0,0,1,168.39,37l-.3,1.42A3.68,3.68,0,0,1,164.51,41h-7.19Z"/><path class="cls-3" d="M201.5,54.25l-.73,3.46a3.3,3.3,0,0,1-3.24,2.3H176.88c-2.29,0-3.81-1.55-3.41-3.45l5.83-27.62c.4-1.91,2.58-3.45,4.86-3.45h2.76c1.52,0,2.53,1,2.26,2.3L184.09,52h15.14C200.76,52,201.77,53,201.5,54.25Z"/><path class="cls-4" d="M80.58,55v5H54.3a5.42,5.42,0,0,1-5.42-5.42h0a5.41,5.41,0,0,1,1.53-3.77l6.34-6.55L66.88,33.82a6.26,6.26,0,0,0,1.74-4.35,1.34,1.34,0,0,0,0-.2,5.93,5.93,0,0,0-11.85-.39s-.07,1.14-.12,1.4a4.53,4.53,0,0,1-9-.12,1.43,1.43,0,0,1,0-.29c0-.18,0-.87,0-.87,0-9.13,7-16.52,15.5-16.52S78.6,19.92,78.6,29.1a17.87,17.87,0,0,1-.6,4.61c0,.16-.09.32-.14.47a16.91,16.91,0,0,1-3.65,6.51h0l-8.78,9.09h10A5.18,5.18,0,0,1,80.58,55Z"/><path class="cls-4" d="M53.61,39V46.8H44.55V60H34.19V46.8H11.47A9,9,0,0,1,3.18,34.38a9.09,9.09,0,0,1,1.95-2.9L32.21,4.39A6.55,6.55,0,0,1,33.85,3.2a6.41,6.41,0,0,1,2.92-.7,6.29,6.29,0,0,1,1.32.13A6.45,6.45,0,0,1,43.23,9a6.32,6.32,0,0,1-1.9,4.51L21,33.84h13.2V23.74h5.18a5.18,5.18,0,0,1,5.18,5.18v4.92h3.88A5.18,5.18,0,0,1,53.61,39Z"/></g></g></svg>