<svg width="23" height="25" viewBox="0 0 23 25" fill="none" xmlns="http://www.w3.org/2000/svg">
<path d="M1.98561 20.6408H6.85509C6.93782 22.9038 8.7816 25 11.5 25C14.2066 25 16.0622 22.9276 16.1567 20.6408H21.0144C22.2436 20.6408 23 19.9619 23 18.9376C23 17.6632 21.8535 16.5793 20.778 15.5431C19.9388 14.7213 19.7379 13.0777 19.5843 11.3983C19.4188 6.90805 18.1069 3.90662 15.0339 2.78704C14.573 1.20295 13.261 0 11.5 0C9.73895 0 8.42703 1.20295 7.9779 2.78704C4.89311 3.90662 3.59301 6.90805 3.41572 11.3983C3.26208 13.0777 3.06115 14.7213 2.22199 15.5431C1.14645 16.5793 0 17.6632 0 18.9376C0 19.9619 0.756423 20.6408 1.98561 20.6408ZM2.88386 18.4254V18.2825C3.19116 17.9371 3.87667 17.3059 4.45581 16.6389C5.27133 15.698 5.64954 13.959 5.76773 11.696C5.90956 6.91996 7.37513 5.31205 9.26619 4.7999C9.56167 4.71653 9.71531 4.57361 9.73895 4.25202C9.79805 3.04907 10.4717 2.23916 11.5 2.23916C12.5401 2.23916 13.202 3.04907 13.261 4.25202C13.2847 4.57361 13.4502 4.71653 13.7338 4.7999C15.6367 5.31205 17.0904 6.91996 17.2323 11.696C17.3623 13.959 17.7405 15.698 18.5442 16.6389C19.1233 17.3059 19.7852 17.9371 20.0925 18.2825V18.4254H2.88386ZM11.5 23.0824C10.1644 23.0824 9.20709 22.1177 9.12436 20.6408H13.8875C13.8165 22.1058 12.8474 23.0824 11.5 23.0824Z" fill="white"/>
</svg>
