<svg width="20" height="16" viewBox="0 0 20 16" fill="none" xmlns="http://www.w3.org/2000/svg">
<path d="M5.55469 15.4359C6.05566 15.4359 6.4248 15.2391 7.03125 14.8102L10.0459 12.6867H15.3369C17.9824 12.6867 19.4678 11.4633 19.4678 9.37501V3.91172C19.4678 1.82344 17.9824 0.600006 15.3369 0.600006H4.13086C1.49414 0.600006 0 1.82344 0 3.91172V9.37501C0 11.4703 1.53809 12.6867 4.06934 12.6867H4.42969V14.4094C4.42969 15.0352 4.84277 15.4359 5.55469 15.4359ZM5.99414 13.8609V11.857C5.99414 11.4422 5.76562 11.2805 5.27344 11.2805H4.19238C2.54004 11.2805 1.74902 10.6125 1.74902 9.33282V3.95391C1.74902 2.67422 2.54004 2.00626 4.19238 2.00626H15.2842C16.9277 2.00626 17.7188 2.67422 17.7188 3.95391V9.33282C17.7188 10.6125 16.9277 11.2805 15.2842 11.2805H9.94922C9.41309 11.2805 9.14941 11.3508 8.78027 11.6602L5.99414 13.8609ZM5.50195 7.69454C6.22266 7.69454 6.80273 7.22344 6.80273 6.63985C6.80273 6.06329 6.22266 5.59219 5.50195 5.59219C4.77246 5.59219 4.18359 6.06329 4.18359 6.63985C4.18359 7.22344 4.77246 7.69454 5.50195 7.69454ZM9.73828 7.69454C10.459 7.69454 11.0479 7.22344 11.0479 6.63985C11.0479 6.06329 10.459 5.59219 9.73828 5.59219C9.01758 5.59219 8.42871 6.06329 8.42871 6.63985C8.42871 7.22344 9.01758 7.69454 9.73828 7.69454ZM13.9834 7.69454C14.7041 7.69454 15.293 7.22344 15.293 6.63985C15.293 6.06329 14.7041 5.59219 13.9834 5.59219C13.2627 5.59219 12.6738 6.06329 12.6738 6.63985C12.6738 7.22344 13.2627 7.69454 13.9834 7.69454Z" fill="#53B7BA"/>
</svg>
