<svg width="25" height="25" viewBox="0 0 25 25" fill="none" xmlns="http://www.w3.org/2000/svg">
<path d="M12.494 25C19.3451 25 25 19.3424 25 12.5C25 5.65764 19.333 0 12.4819 0C5.64282 0 0 5.65764 0 12.5C0 19.3424 5.6549 25 12.494 25ZM12.494 22.5097C6.9478 22.5097 2.51329 18.0488 2.51329 12.5C2.51329 6.95116 6.9478 2.50242 12.4819 2.50242C18.028 2.50242 22.4867 6.95116 22.4988 12.5C22.5109 18.0488 18.0401 22.5097 12.494 22.5097ZM12.494 12.089C14.1856 12.1011 15.551 10.6504 15.551 8.74033C15.551 6.95116 14.1856 5.46422 12.494 5.46422C10.7902 5.46422 9.42484 6.95116 9.42484 8.74033C9.42484 10.6504 10.7902 12.0769 12.494 12.089ZM7.15321 18.5445H17.8226C18.3422 18.5445 18.608 18.1818 18.608 17.6983C18.608 16.3927 16.6747 13.0319 12.494 13.0319C8.30111 13.0319 6.36781 16.3927 6.36781 17.6983C6.36781 18.1818 6.63364 18.5445 7.15321 18.5445Z" fill="white"/>
</svg>
