<svg width="25" height="25" viewBox="0 0 25 25" fill="none" xmlns="http://www.w3.org/2000/svg">
<circle cx="12.5" cy="12.5" r="12.5" fill="#EAEAEA"/>
<path d="M8.30338 21.9274C8.64212 21.9274 8.89215 21.7661 9.29542 21.4032L12.2715 18.7174L17.5463 18.7255C19.974 18.7255 21.337 17.3221 21.337 14.9267V8.65993C21.337 6.26452 19.974 4.86115 17.5463 4.86115H7.26295C4.84334 4.86115 3.47223 6.26452 3.47223 8.65993V14.9267C3.47223 17.3302 4.88367 18.7174 7.20649 18.7174H7.52911V21.0564C7.52911 21.5887 7.81139 21.9274 8.30338 21.9274ZM8.43243 10.9505C8.43243 9.95845 9.1825 9.2487 10.1907 9.2487C11.2956 9.2487 12.0215 10.144 12.0215 11.2892C12.0215 13.2653 10.4084 14.3137 9.53738 14.3137C9.29542 14.3137 9.10992 14.1524 9.10992 13.9266C9.10992 13.733 9.2067 13.5959 9.49705 13.5233C10.11 13.3701 10.7149 12.9184 10.9811 12.2893H10.8843C10.6665 12.5474 10.3197 12.6281 9.95678 12.6281C9.02926 12.6281 8.43243 11.9022 8.43243 10.9505ZM12.8522 10.9505C12.8522 9.95845 13.6023 9.2487 14.6024 9.2487C15.7074 9.2487 16.4413 10.144 16.4413 11.2892C16.4413 13.2653 14.8363 14.3137 13.9572 14.3137C13.7152 14.3137 13.5378 14.1524 13.5378 13.9266C13.5378 13.733 13.6346 13.5959 13.9169 13.5233C14.5298 13.3701 15.1347 12.9184 15.4009 12.2893H15.3041C15.0863 12.5474 14.7395 12.6281 14.3685 12.6281C13.4491 12.6281 12.8522 11.9022 12.8522 10.9505Z" fill="#1C1C1E"/>
</svg>
