<svg xmlns="http://www.w3.org/2000/svg" viewBox="0 0 285.72 114.06"><defs><style>.cls-1,.cls-2{fill:#fff;}.cls-2{font-size:45px;font-family:Futura-CondensedExtraBold, Futura;font-weight:800;}.cls-3{letter-spacing:-0.01em;}.cls-4{letter-spacing:0.01em;}</style></defs><g id="레이어_2" data-name="레이어 2"><g id="레이어_1-2" data-name="레이어 1"><polygon class="cls-1" points="58.46 0 0.04 58.39 0 85.32 58.26 85.14 58.44 114.06 90.54 114.06 90.64 58.46 33.84 58.43 90.57 1.6 90.57 0.55 90.02 0.01 58.46 0"/><polygon class="cls-1" points="103.21 0.55 103.11 29.39 131.68 0.75 132.19 0.75 132.29 30.11 103.09 59.44 103.14 89.39 162.16 89.43 162.09 59.87 133.52 88.31 132.6 88.31 132.53 60.01 161.48 30.96 161.41 0.41 103.21 0.55"/><text class="cls-2" transform="translate(170.45 89.18)"><tspan class="cls-3">w</tspan><tspan x="34.28" y="0">o</tspan><tspan class="cls-4" x="59.08" y="0">r</tspan><tspan x="77.1" y="0">ld</tspan></text></g></g></svg>