<svg width="15" height="14" viewBox="0 0 15 14" fill="none" xmlns="http://www.w3.org/2000/svg">
<path d="M0 4.66916C0 7.85912 2.66057 11.0117 6.79595 13.7012C7.02569 13.8506 7.30731 14 7.5 14C7.69269 14 7.97431 13.8506 8.20405 13.7012C12.3468 11.0117 15 7.85912 15 4.66916C15 1.91249 13.1102 0 10.6868 0C9.27125 0 8.167 0.649947 7.5 1.63607C6.84783 0.657417 5.73617 0 4.32065 0C1.88982 0 0 1.91249 0 4.66916ZM1.52668 4.66169C1.52668 2.77908 2.75692 1.5016 4.40958 1.5016C5.74358 1.5016 6.49209 2.3159 6.95899 3.02561C7.1665 3.33191 7.30731 3.42903 7.5 3.42903C7.7001 3.42903 7.82609 3.32444 8.04101 3.02561C8.54496 2.33084 9.26383 1.5016 10.5904 1.5016C12.2505 1.5016 13.4807 2.77908 13.4807 4.66169C13.4807 7.29136 10.7683 10.2049 7.64081 12.2967C7.57411 12.3415 7.52964 12.3714 7.5 12.3714C7.47036 12.3714 7.42589 12.3415 7.3666 12.2967C4.23913 10.2049 1.52668 7.29136 1.52668 4.66169Z" fill="#1C1C1E"/>
</svg>
