<svg width="24" height="25" viewBox="0 0 24 25" fill="none" xmlns="http://www.w3.org/2000/svg">
<path d="M2.98561 20.6408H7.85509C7.93782 22.9038 9.7816 25 12.5 25C15.2066 25 17.0622 22.9276 17.1567 20.6408H22.0144C23.2436 20.6408 24 19.9619 24 18.9376C24 17.6632 22.8535 16.5793 21.778 15.5431C20.9388 14.7213 20.7379 13.0777 20.5843 11.3983C20.4188 6.90805 19.1069 3.90662 16.0339 2.78704C15.573 1.20295 14.261 0 12.5 0C10.739 0 9.42703 1.20295 8.9779 2.78704C5.89311 3.90662 4.59301 6.90805 4.41572 11.3983C4.26208 13.0777 4.06115 14.7213 3.22199 15.5431C2.14645 16.5793 1 17.6632 1 18.9376C1 19.9619 1.75642 20.6408 2.98561 20.6408ZM3.88386 18.4254V18.2825C4.19116 17.9371 4.87667 17.3059 5.45581 16.6389C6.27133 15.698 6.64954 13.959 6.76773 11.696C6.90956 6.91996 8.37513 5.31205 10.2662 4.7999C10.5617 4.71653 10.7153 4.57361 10.739 4.25202C10.798 3.04907 11.4717 2.23916 12.5 2.23916C13.5401 2.23916 14.202 3.04907 14.261 4.25202C14.2847 4.57361 14.4502 4.71653 14.7338 4.7999C16.6367 5.31205 18.0904 6.91996 18.2323 11.696C18.3623 13.959 18.7405 15.698 19.5442 16.6389C20.1233 17.3059 20.7852 17.9371 21.0925 18.2825V18.4254H3.88386ZM12.5 23.0824C11.1644 23.0824 10.2071 22.1177 10.1244 20.6408H14.8875C14.8165 22.1058 13.8474 23.0824 12.5 23.0824Z" fill="white"/>
<circle cx="5" cy="5" r="5" fill="#AD0000"/>
</svg>
