<svg width="26" height="16" viewBox="0 0 26 16" fill="none" xmlns="http://www.w3.org/2000/svg">
<rect width="26" height="16" rx="5" fill="#E4AFA6"/>
<path d="M7.83154 4.60156V11H6.29346L4.03027 7.01855V11H2.48779V4.60156H4.03027L6.29346 8.58301V4.60156H7.83154ZM13.2104 9.81348V11H9.80029V9.81348H13.2104ZM10.3496 4.60156V11H8.80713V4.60156H10.3496ZM12.771 7.1416V8.28857H9.80029V7.1416H12.771ZM13.2236 4.60156V5.79248H9.80029V4.60156H13.2236ZM15.3198 10.4199L16.5942 4.60156H17.3545L17.7676 5.09814L16.4097 11H15.5703L15.3198 10.4199ZM14.9814 4.60156L16.0581 10.4639L15.7812 11H14.8101L13.4521 4.60156H14.9814ZM18.4663 10.4331L19.5342 4.60156H21.0591L19.7012 11H18.7344L18.4663 10.4331ZM17.9038 4.60156L19.209 10.4551L18.9453 11H18.106L16.7173 5.08936L17.1479 4.60156H17.9038ZM23.2563 4.60156L23.0674 8.97412H21.8633L21.6743 4.60156H23.2563ZM21.6348 10.3364C21.6348 10.1255 21.7109 9.94971 21.8633 9.80908C22.0156 9.66553 22.2134 9.59375 22.4565 9.59375C22.6997 9.59375 22.896 9.66553 23.0454 9.80908C23.1978 9.94971 23.2739 10.1255 23.2739 10.3364C23.2739 10.5474 23.1978 10.7246 23.0454 10.8682C22.896 11.0088 22.6997 11.0791 22.4565 11.0791C22.2134 11.0791 22.0156 11.0088 21.8633 10.8682C21.7109 10.7246 21.6348 10.5474 21.6348 10.3364Z" fill="white"/>
</svg>
