<svg width="26" height="16" viewBox="0 0 26 16" fill="none" xmlns="http://www.w3.org/2000/svg">
<rect width="26" height="16" rx="5" fill="#53B7BA"/>
<path d="M7.79883 7.30298V8.4895H4.51611V7.30298H7.79883ZM5.03027 4.76294V11.1614H3.48779V4.76294H5.03027ZM8.83594 4.76294V11.1614H7.29785V4.76294H8.83594ZM15.23 7.83472V8.09399C15.23 8.58325 15.1611 9.02271 15.0234 9.41235C14.8887 9.79907 14.6968 10.1301 14.4478 10.4055C14.1987 10.678 13.9043 10.8875 13.5645 11.0339C13.2246 11.1775 12.8496 11.2493 12.4395 11.2493C12.0264 11.2493 11.6484 11.1775 11.3057 11.0339C10.9658 10.8875 10.6699 10.678 10.418 10.4055C10.1689 10.1301 9.97559 9.79907 9.83789 9.41235C9.70312 9.02271 9.63574 8.58325 9.63574 8.09399V7.83472C9.63574 7.34546 9.70312 6.90601 9.83789 6.51636C9.97559 6.12671 10.1675 5.79565 10.4136 5.52319C10.6626 5.2478 10.957 5.03833 11.2969 4.89478C11.6396 4.74829 12.0176 4.67505 12.4307 4.67505C12.8408 4.67505 13.2158 4.74829 13.5557 4.89478C13.8984 5.03833 14.1943 5.2478 14.4434 5.52319C14.6924 5.79565 14.8857 6.12671 15.0234 6.51636C15.1611 6.90601 15.23 7.34546 15.23 7.83472ZM13.6655 8.09399V7.82593C13.6655 7.50952 13.6377 7.2312 13.582 6.99097C13.5293 6.7478 13.4502 6.54419 13.3447 6.38013C13.2393 6.21606 13.1089 6.09302 12.9536 6.01099C12.8013 5.92603 12.627 5.88354 12.4307 5.88354C12.2256 5.88354 12.0469 5.92603 11.8945 6.01099C11.7422 6.09302 11.6147 6.21606 11.5122 6.38013C11.4097 6.54419 11.332 6.7478 11.2793 6.99097C11.2295 7.2312 11.2046 7.50952 11.2046 7.82593V8.09399C11.2046 8.40747 11.2295 8.68579 11.2793 8.92896C11.332 9.16919 11.4097 9.3728 11.5122 9.53979C11.6177 9.70679 11.7466 9.83276 11.8989 9.91772C12.0542 10.0027 12.2344 10.0452 12.4395 10.0452C12.6357 10.0452 12.8101 10.0027 12.9624 9.91772C13.1147 9.83276 13.2422 9.70679 13.3447 9.53979C13.4502 9.3728 13.5293 9.16919 13.582 8.92896C13.6377 8.68579 13.6655 8.40747 13.6655 8.09399ZM18.75 4.76294V11.1614H17.2075V4.76294H18.75ZM20.6748 4.76294V5.95386H15.3267V4.76294H20.6748ZM22.9204 4.76294L22.7314 9.1355H21.5273L21.3384 4.76294H22.9204ZM21.2988 10.4978C21.2988 10.2869 21.375 10.1111 21.5273 9.97046C21.6797 9.8269 21.8774 9.75513 22.1206 9.75513C22.3638 9.75513 22.5601 9.8269 22.7095 9.97046C22.8618 10.1111 22.938 10.2869 22.938 10.4978C22.938 10.7087 22.8618 10.886 22.7095 11.0295C22.5601 11.1702 22.3638 11.2405 22.1206 11.2405C21.8774 11.2405 21.6797 11.1702 21.5273 11.0295C21.375 10.886 21.2988 10.7087 21.2988 10.4978Z" fill="white"/>
</svg>
