<svg width="25" height="25" viewBox="0 0 25 25" fill="none" xmlns="http://www.w3.org/2000/svg">
<circle cx="12.5" cy="12.5" r="12.5" fill="#EAEAEA"/>
<path fill-rule="evenodd" clip-rule="evenodd" d="M12.5 2.08337C6.74483 2.08337 2.08337 6.74483 2.08337 12.5C2.08337 17.1094 5.06514 21.0026 9.20577 22.3829C9.7266 22.474 9.92192 22.1615 9.92192 21.8881C9.92192 21.6407 9.90889 20.8204 9.90889 19.948C7.29171 20.4297 6.61462 19.3099 6.40629 18.724C6.2891 18.4245 5.78129 17.5 5.33858 17.2526C4.974 17.0573 4.45317 16.5756 5.32556 16.5625C6.14587 16.5495 6.73181 17.3177 6.92712 17.6302C7.86462 19.2058 9.36202 18.7631 9.96098 18.4896C10.0521 17.8125 10.3256 17.3568 10.625 17.0964C8.30733 16.836 5.88546 15.9375 5.88546 11.9532C5.88546 10.8204 6.2891 9.88285 6.95317 9.15369C6.849 8.89327 6.48442 7.82556 7.05733 6.39327C7.05733 6.39327 7.92973 6.11983 9.92192 7.46098C10.7552 7.2266 11.6407 7.10942 12.5261 7.10942C13.4115 7.10942 14.2969 7.2266 15.1302 7.46098C17.1224 6.10681 17.9948 6.39327 17.9948 6.39327C18.5677 7.82556 18.2032 8.89327 18.099 9.15369C18.7631 9.88285 19.1667 10.8073 19.1667 11.9532C19.1667 15.9506 16.7318 16.836 14.4141 17.0964C14.7917 17.4219 15.1172 18.0469 15.1172 19.0235C15.1172 20.4167 15.1042 21.5365 15.1042 21.8881C15.1042 22.1615 15.2995 22.487 15.8204 22.3829C19.9349 21.0026 22.9167 17.0964 22.9167 12.5C22.9167 6.74483 18.2552 2.08337 12.5 2.08337Z" fill="black"/>
</svg>
