<svg width="25" height="25" viewBox="0 0 25 25" fill="none" xmlns="http://www.w3.org/2000/svg">
<circle cx="12.5" cy="12.5" r="12.5" fill="#EAEAEA"/>
<g clip-path="url(#clip0_1842_1168)">
<path fill-rule="evenodd" clip-rule="evenodd" d="M5.44706 5.72919C4.35639 5.72919 3.47223 6.61335 3.47223 7.70401V8.53431C3.47205 8.54449 3.47205 8.55467 3.47223 8.56483V17.296C3.47223 18.3867 4.35639 19.2709 5.44706 19.2709H19.553C20.6436 19.2709 21.5278 18.3867 21.5278 17.296V8.56464C21.528 8.55461 21.528 8.54456 21.5278 8.5345V7.70401C21.5278 6.61335 20.6436 5.72919 19.553 5.72919H5.44706ZM19.8351 8.06545V7.70401C19.8351 7.54821 19.7088 7.4219 19.553 7.4219H5.44706C5.29125 7.4219 5.16494 7.54821 5.16494 7.70401V8.06545L12.5 12.3653L19.8351 8.06545ZM5.16494 10.0276V17.296C5.16494 17.4519 5.29125 17.5781 5.44706 17.5781H19.553C19.7088 17.5781 19.8351 17.4519 19.8351 17.296V10.0276L12.928 14.0765C12.6637 14.2315 12.3363 14.2315 12.072 14.0765L5.16494 10.0276Z" fill="#24292E"/>
</g>
<defs>
<clipPath id="clip0_1842_1168">
<rect width="18.0556" height="18.0556" fill="white" transform="translate(3.47223 3.47223)"/>
</clipPath>
</defs>
</svg>
